
 #######                         #######                      
 #       ###### ###### #         #       #####  ###### ###### 
 #       #      #      #         #       #    # #      #      
 #####   #####  #####  #         #####   #    # #####  #####  
 #       #      #      #         #       #####  #      #      
 #       #      #      #         #       #   #  #      #      
 #       ###### ###### ######    #       #    # ###### ###### 


Genre:Comedy | Romance 
Language:English
IMDb: 
http://www.imdb.com/title/tt1564367/
Source:TaRiQ786/IMAGINE Thx.


Format : AVI
Format/Info : Audio Video Interleave
File size : 878 MiB
Duration : 1h 49mn
Overall bit rate : 1 119 Kbps


Video
Codec ID/Hint : XviD
Duration : 1h 49mn
Bit rate : 981 Kbps
Width : 720 pixels
Height : 304 pixels
Display aspect ratio : 2.35:1
Frame rate : 25.000 fps
Color space : YUV
Chroma subsampling : 4:2:0
Bit depth : 8 bits
Scan type : Progressive
Bits/(Pixel*Frame) : 0.179
Stream size : 770 MiB (88%)
Writing library : XviD 1.2.1

Audio
ID : 1
Format : MPEG Audio
Format version : Version 1
Format profile : Layer 3
Codec ID : 55
Codec ID/Hint : MP3
Duration : 1h 49mn
Bit rate mode : Constant
Bit rate : 128 Kbps
Channel(s) : 2 channels
Sampling rate : 44.1 KHz
Video delay : 4ms
Stream size : 100 MiB (11%)
Alignment : Split accross interleaves
Interleave, duration : 40 ms (1.00 video frame)
Interleave, preload duration : 500 ms



Plot:
On a weekend trip to Hawaii, a plastic surgeon convinces his loyal assistant
to pose as his soon-to-be-divorced wife in order to cover up a careless lie
he told to his much-younger girlfriend.







================================== 
http://thepiratebay.org/user/hiest
==================================







Screen Shots:
 
http://www.postimg.com/30000/29499.jpg
 
http://www.postimg.com/30000/29500.jpg
 
http://www.postimg.com/30000/29501.jpg
 
http://www.postimg.com/30000/29502.jpg
 
http://www.postimg.com/30000/29503.jpg
 
http://www.postimg.com/30000/29504.jpg


 #######                         #######                      
 #       ###### ###### #         #       #####  ###### ###### 
 #       #      #      #         #       #    # #      #      
 #####   #####  #####  #         #####   #    # #####  #####  
 #       #      #      #         #       #####  #      #      
 #       #      #      #         #       #   #  #      #      
 #       ###### ###### ######    #       #    # ###### ###### 
